<svg xmlns="http://www.w3.org/2000/svg" width="48" height="48" viewBox="0 0 24 24"><path fill="0" d="M11.978 10.025q.305-.307.305-.753 0-.445-.308-.75-.307-.305-.753-.305-.445 0-.75.308-.305.307-.305.753 0 .445.308.75.307.305.753.305.445 0 .75-.308m8.514 11.225q-.723 0-2.392-.933t-3.579-2.336q-.59.26-1.231.39-.642.129-1.315.129-2.715 0-4.595-1.88T5.5 12.025q0-.673.133-1.327.132-.654.392-1.244-1.379-1.89-2.286-3.528t-.906-2.342q0-.328.182-.533.183-.205.468-.205.419 0 1.61.585 1.191.584 2.728 1.525-.263.136-.488.286-.226.15-.439.323-.763-.448-1.492-.83-.729-.383-1.46-.724.546 1.181 1.193 2.293.648 1.111 1.396 2.198.873-1.35 2.29-2.164 1.418-.813 3.154-.813 2.716 0 4.608 1.892t1.892 4.608q0 1.737-.816 3.164-.817 1.427-2.167 2.3 1.106.767 2.24 1.427 1.134.659 2.334 1.219-.335-.725-.72-1.454-.387-.729-.835-1.492.19-.211.343-.447.152-.236.287-.486.938 1.546 1.514 2.73t.576 1.603q0 .302-.204.481t-.535.18m-6.247-6.704q.21-.21.21-.52t-.21-.521q-.209-.21-.52-.21t-.52.21q-.21.209-.21.52t.21.52q.209.21.52.21t.52-.21m1.229-3.306q.193-.19.193-.48t-.19-.483-.48-.193-.482.19q-.194.189-.194.48 0 .29.19.482.19.194.48.194t.483-.19m-1.985 5.948q-1.93-1.466-3.576-3.131t-3.105-3.594q-.154.404-.231.779t-.077.817q.011 1.084.444 2.095.433 1.01 1.179 1.747t1.725 1.16 2.063.434q.385 0 .789-.077t.788-.23m1.095-.353q1.296-.701 2.094-1.984t.798-2.85q0-2.283-1.609-3.88t-3.891-1.595q-1.567 0-2.837.789-1.27.788-1.972 2.084 1.559 2.13 3.423 3.994t3.994 3.443m-2.27-5.168"/></svg>